curl
version=1
nRows=262
nColumns=3
inDegrees=yes
endheader
time	r_shoulder_elev	r_elbow_flex
0.0000	47.379280	28.817847
0.0100	47.313133	28.774724
0.0200	47.234796	28.716625
0.0300	47.143293	28.642104
0.0400	47.037722	28.549804
0.0500	46.917270	28.438477
0.0600	46.781231	28.307008
0.0700	46.629025	28.154442
0.0800	46.460211	27.980000
0.0900	46.274497	27.783097
0.1000	46.071759	27.563360
0.1100	45.852042	27.320636
0.1200	45.615569	27.055002
0.1300	45.362743	26.766769
0.1400	45.094147	26.456482
0.1500	44.810542	26.124915
0.1600	44.512859	25.773065
0.1700	44.202187	25.402140
0.1800	43.879769	25.013546
0.1900	43.546976	24.608863
0.2000	43.205297	24.189829
0.2100	42.856317	23.758314
0.2200	42.501695	23.316292
0.2300	42.143141	22.865819
0.2400	41.782393	22.408997
0.2500	41.421194	21.947954
0.2600	41.061264	21.484810
0.2700	40.704282	21.021653
0.2800	40.351862	20.560513
0.2900	40.005531	20.103337
0.3000	39.666712	19.651969
0.3100	39.336707	19.208132
0.3200	39.016685	18.773405
0.3300	38.707667	18.349219
0.3400	38.410524	17.936837
0.3500	38.125966	17.537350
0.3600	37.854544	17.151673
0.3700	37.596649	16.780540
0.3800	37.352512	16.424507
0.3900	37.122217	16.083953
0.4000	36.905703	15.759086
0.4100	36.702777	15.449953
0.4200	36.513122	15.156448
0.4300	36.336316	14.878324
0.4400	36.171840	14.615204
0.4500	36.019095	14.366601
0.4600	35.877418	14.131924
0.4700	35.746097	13.910504
0.4800	35.624382	13.701602
0.4900	35.511505	13.504430
0.5000	35.406690	13.318165
0.5100	35.309169	13.141965
0.5200	35.218192	12.974985
0.5300	35.133036	12.816393
0.5400	35.053019	12.665379
0.5500	34.977505	12.521169
0.5600	34.905907	12.383035
0.5700	34.837698	12.250305
0.5800	34.772411	12.122368
0.5900	34.709636	11.998680
0.6000	34.649028	11.878768
0.6100	34.590298	11.762233
0.6200	34.533217	11.648748
0.6300	34.477607	11.538059
0.6400	34.423338	11.429985
0.6500	34.370326	11.324409
0.6600	34.318525	11.221279
0.6700	34.267922	11.120600
0.6800	34.218530	11.022428
0.6900	34.170384	10.926864
0.7000	34.123537	10.834043
0.7100	34.078050	10.744133
0.7200	34.033991	10.657319
0.7300	33.991427	10.573800
0.7400	33.950424	10.493778
0.7500	33.911039	10.417452
0.7600	33.873318	10.345008
0.7700	33.837297	10.276615
0.7800	33.802991	10.212416
0.7900	33.770402	10.152522
0.8000	33.739511	10.097010
0.8100	33.710281	10.045917
0.8200	33.682654	9.999237
0.8300	33.656555	9.956920
0.8400	33.631889	9.918869
0.8500	33.608544	9.884944
0.8600	33.586394	9.854958
0.8700	33.565297	9.828682
0.8800	33.545101	9.805845
0.8900	33.525643	9.786141
0.9000	33.506754	9.769227
0.9100	33.488260	9.754735
0.9200	33.469983	9.742267
0.9300	33.451745	9.731409
0.9400	33.433373	9.721733
0.9500	33.414694	9.712799
0.9600	33.395544	9.704166
0.9700	33.375765	9.695392
0.9800	33.355207	9.686044
0.9900	33.333730	9.675701
1.0000	33.311206	9.663956
1.0100	33.287515	9.650429
1.0200	33.262548	9.634761
1.0300	33.236209	9.616630
1.0400	33.208409	9.595743
1.0500	33.179069	9.571851
1.0600	33.148118	9.544745
1.0700	33.115492	9.514261
1.0800	33.081133	9.480284
1.0900	33.044987	9.442750
1.1000	33.007003	9.401647
1.1100	32.967132	9.357016
1.1200	32.925327	9.308955
1.1300	32.881537	9.257614
1.1400	32.835714	9.203200
1.1500	32.787804	9.145975
1.1600	32.737754	9.086251
1.1700	32.685505	9.024395
1.1800	32.630998	8.960818
1.1900	32.574171	8.895979
1.2000	32.514959	8.830377
1.2100	32.453296	8.764550
1.2200	32.389118	8.699065
1.2300	32.322359	8.634519
1.2400	32.252958	8.571528
1.2500	32.180859	8.510726
1.2600	32.106012	8.452753
1.2700	32.028377	8.398253
1.2800	31.947925	8.347865
1.2900	31.864642	8.302219
1.3000	31.778528	8.261923
1.3100	31.689605	8.227561
1.3200	31.597914	8.199686
1.3300	31.503522	8.178809
1.3400	31.406520	8.165399
1.3500	31.307028	8.159873
1.3600	31.205193	8.162595
1.3700	31.101195	8.173869
1.3800	30.995244	8.193937
1.3900	30.887583	8.222978
1.4000	30.778487	8.261106
1.4100	30.668263	8.308368
1.4200	30.557248	8.364748
1.4300	30.445809	8.430164
1.4400	30.334340	8.504473
1.4500	30.223260	8.587474
1.4600	30.113011	8.678908
1.4700	30.004051	8.778464
1.4800	29.896855	8.885783
1.4900	29.791905	9.000463
1.5000	29.689689	9.122060
1.5100	29.590696	9.250097
1.5200	29.495408	9.384068
1.5300	29.404294	9.523438
1.5400	29.317809	9.667654
1.5500	29.236384	9.816143
1.5600	29.160420	9.968319
1.5700	29.090286	10.123586
1.5800	29.026311	10.281341
1.5900	28.968777	10.440976
1.6000	28.917920	10.601882
1.6100	28.873922	10.763452
1.6200	28.836909	10.925083
1.6300	28.806947	11.086176
1.6400	28.784041	11.246142
1.6500	28.768135	11.404404
1.6600	28.759112	11.560396
1.6700	28.756790	11.713567
1.6800	28.760929	11.863386
1.6900	28.771231	12.009340
1.7000	28.787343	12.150940
1.7100	28.808862	12.287721
1.7200	28.835337	12.419250
1.7300	28.866279	12.545124
1.7400	28.901162	12.664981
1.7500	28.939430	12.778500
1.7600	28.980509	12.885410
1.7700	29.023806	12.985492
1.7800	29.068723	13.078595
1.7900	29.114658	13.164634
1.8000	29.161018	13.243604
1.8100	29.207220	13.315589
1.8200	29.252702	13.380767
1.8300	29.296928	13.439424
1.8400	29.339393	13.491961
1.8500	29.379626	13.538901
1.8600	29.417200	13.580901
1.8700	29.451734	13.618758
1.8800	29.482892	13.653417
1.8900	29.510392	13.685978
1.9000	29.534006	13.717702
1.9100	29.553559	13.750011
1.9200	29.568934	13.784498
1.9300	29.580069	13.822923
1.9400	29.586957	13.867212
1.9500	29.589645	13.919459
1.9600	29.588233	13.981919
1.9700	29.582871	14.057002
1.9800	29.573756	14.147261
1.9900	29.561129	14.255388
2.0000	29.545268	14.384194
2.0100	29.526488	14.536597
2.0200	29.505134	14.715603
2.0300	29.481577	14.924287
2.0400	29.456207	15.165769
2.0500	29.429431	15.443195
2.0600	29.401663	15.759704
2.0700	29.373324	16.118408
2.0800	29.344836	16.522359
2.0900	29.316614	16.974523
2.1000	29.289066	17.477750
2.1100	29.262588	18.034741
2.1200	29.237560	18.648023
2.1300	29.214343	19.319915
2.1400	29.193279	20.052504
2.1500	29.174685	20.847613
2.1600	29.158858	21.706777
2.1700	29.146065	22.631221
2.1800	29.136552	23.621834
2.1900	29.130535	24.679153
2.2000	29.128208	25.803343
2.2100	29.129736	26.994188
2.2200	29.135262	28.251082
2.2300	29.144905	29.573019
2.2400	29.158762	30.958599
2.2500	29.176908	32.406032
2.2600	29.199399	33.913144
2.2700	29.226276	35.477397
2.2800	29.257562	37.095911
2.2900	29.293267	38.765486
2.3000	29.333388	40.482636
2.3100	29.377913	42.243625
2.3200	29.426818	44.044505
2.3300	29.480076	45.881159
2.3400	29.537651	47.749343
2.3500	29.599501	49.644731
2.3600	29.665582	51.562958
2.3700	29.735844	53.499664
2.3800	29.810233	55.450535
2.3900	29.888694	57.411344
2.4000	29.971164	59.377984
2.4100	30.057576	61.346500
2.4200	30.147854	63.313118
2.4300	30.241917	65.274267
2.4400	30.339670	67.226598
2.4500	30.441006	69.166991
2.4600	30.545802	71.092572
2.4700	30.653918	73.000708
2.4800	30.765194	74.889012
2.4900	30.879447	76.755336
2.5000	30.996468	78.597764
2.5100	31.116024	80.414603
2.5200	31.237855	82.204364
2.5300	31.361671	83.965754
2.5400	31.487157	85.697653
2.5500	31.613966	87.399095
2.5600	31.741728	89.069250
2.5700	31.870044	90.707402
2.5800	31.998494	92.312924
2.5900	32.126635	93.885262
2.6000	32.254006	95.423909
2.6100	32.380133	96.928389
